<?xml version="1.0" encoding="iso-8859-1"?>
<!-- Generator: Adobe Illustrator 19.0.0, SVG Export Plug-In . SVG Version: 6.00 Build 0)  -->
<svg xmlns="http://www.w3.org/2000/svg" version="1.1" id="Layer_1" x="0px"
     y="0px" viewBox="0 0 512 512" style="enable-background:new 0 0 512 512;" xml:space="preserve" width="512"
     height="512">
<g id="XMLID_459_">
	<g id="XMLID_2932_">
		<path id="XMLID_1090_" style="fill:#9693E8;"
              d="M462,128H50c-22.091,0-40,17.909-40,40v176c0,22.091,17.909,40,40,40h412    c22.091,0,40-17.909,40-40V168C502,145.909,484.091,128,462,128z"/>
        <rect id="XMLID_1089_" x="50" y="168" style="fill:#FFFFFF;" width="412" height="176"/>
	</g>
    <g id="XMLID_446_">
		<g id="XMLID_447_">
			<path id="XMLID_458_"
                  d="M40,168v176c0,5.522,4.477,10,10,10h412c5.523,0,10-4.478,10-10V168c0-5.523-4.477-10-10-10H50     C44.477,158,40,162.477,40,168z M60,178h392v156H60V178z"/>
            <path id="XMLID_453_"
                  d="M197.471,204.838c-1.361-4.083-5.183-6.838-9.487-6.838s-8.125,2.754-9.487,6.838l-32,96     c-1.747,5.239,1.085,10.902,6.325,12.649c5.236,1.744,10.903-1.085,12.649-6.325l6.151-18.453h32.724l6.151,18.453     c1.397,4.19,5.298,6.841,9.485,6.841c1.048,0,2.115-0.166,3.164-0.516c5.24-1.747,8.071-7.41,6.325-12.649L197.471,204.838z      M178.288,268.709l9.696-29.086l9.696,29.086H178.288z"/>
            <path id="XMLID_452_"
                  d="M357.26,200.842c-4.09-1.355-8.59,0.06-11.166,3.516l-31.982,42.909l-31.982-42.909     c-2.575-3.456-7.075-4.872-11.166-3.516c-4.091,1.357-6.852,5.182-6.852,9.492V304c0,5.522,4.477,10,10,10s10-4.478,10-10     v-63.517l21.982,29.492c1.888,2.532,4.86,4.024,8.018,4.024s6.13-1.492,8.018-4.024l21.982-29.492V304c0,5.522,4.477,10,10,10     s10-4.478,10-10v-93.667C364.112,206.024,361.351,202.199,357.26,200.842z"/>
            <path id="XMLID_451_"
                  d="M462,118H163.667c-5.523,0-10,4.477-10,10s4.477,10,10,10H462c16.542,0,30,13.458,30,30v176     c0,16.542-13.458,30-30,30h-67.888c-5.523,0-10,4.478-10,10s4.477,10,10,10H462c27.57,0,50-22.43,50-50V168     C512,140.43,489.57,118,462,118z"/>
            <path id="XMLID_450_"
                  d="M314.112,374H50c-16.542,0-30-13.458-30-30V168c0-16.542,13.458-30,30-30h33.667c5.523,0,10-4.477,10-10     s-4.477-10-10-10H50c-27.57,0-50,22.43-50,50v176c0,27.57,22.43,50,50,50h264.112c5.523,0,10-4.478,10-10     S319.635,374,314.112,374z"/>
            <path id="XMLID_449_"
                  d="M123.67,138c2.63,0,5.21-1.07,7.07-2.93s2.93-4.44,2.93-7.07c0-2.63-1.07-5.21-2.93-7.07     c-1.86-1.86-4.44-2.93-7.07-2.93s-5.21,1.07-7.07,2.93c-1.87,1.86-2.93,4.44-2.93,7.07c0,2.63,1.06,5.21,2.93,7.07     C118.46,136.93,121.03,138,123.67,138z"/>
            <path id="XMLID_448_"
                  d="M354.11,374c-2.63,0-5.21,1.069-7.07,2.93c-1.86,1.86-2.93,4.43-2.93,7.07c0,2.63,1.07,5.21,2.93,7.069     c1.86,1.86,4.44,2.931,7.07,2.931c2.64,0,5.21-1.07,7.07-2.931c1.86-1.859,2.93-4.439,2.93-7.069s-1.07-5.21-2.93-7.07     C359.32,375.069,356.75,374,354.11,374z"/>
		</g>
	</g>
</g>















</svg>
