<?xml version="1.0" encoding="UTF-8"?>
<!-- Generator: Adobe Illustrator 15.1.0, SVG Export Plug-In . SVG Version: 6.00 Build 0)  -->
<!DOCTYPE svg PUBLIC "-//W3C//DTD SVG 1.1//EN" "http://www.w3.org/Graphics/SVG/1.1/DTD/svg11.dtd">
<svg version="1.1" id="Layer_1" xmlns="http://www.w3.org/2000/svg" xmlns:xlink="http://www.w3.org/1999/xlink" x="0px" y="0px" width="64.178px" height="83.229px" viewBox="0 0 64.178 83.229" enable-background="new 0 0 64.178 83.229" xml:space="preserve">
<g>
	<path fill="#0054A4" d="M7.035,1.229c0,0,45.561,16.846,57.143,59.975c-0.063-0.345-32.294,38.021-56.113,11.928   C8.064,73.132-9.374,57.902,7.035,1.229"/>
</g>
<path fill="#FFFFFF" d="M7.372,50.415c-0.387,0-0.772,0.081-1.111,0.273c-0.369,0.21-0.483,0.451-0.483,0.869v3.283  c0,0.95,0.822,1.208,1.626,1.208c0.597,0,1.176-0.226,1.594-0.644c0.563-0.564,0.644-1.433,0.644-2.189  C9.641,51.72,9.062,50.415,7.372,50.415 M7.678,57.385c-0.467,0-0.95-0.064-1.368-0.273c-0.226-0.113-0.436-0.273-0.691-0.258  c0,0.194,0.047,0.402-0.227,0.402H4.056c-0.112,0-0.209-0.097-0.209-0.208V46.199c0-0.112,0.097-0.21,0.209-0.21h1.513  c0.113,0,0.209,0.098,0.209,0.21v3.379c0.307,0,0.387-0.048,0.66-0.16C6.953,49.192,7.437,49.08,8,49.08  c2.317,0,3.572,1.947,3.572,4.104C11.572,55.518,10.124,57.385,7.678,57.385z"/>
<path fill="#FFFFFF" d="M16.841,53.055l-1.224,0.403c-0.708,0.225-1.674,0.563-1.674,1.448c0,0.837,0.741,1.143,1.466,1.143  c0.386,0,0.788-0.063,1.095-0.306c0.305-0.241,0.337-0.515,0.337-0.886V53.055 M18.563,57.256h-1.337  c-0.258,0-0.225-0.225-0.209-0.402h-0.144c-0.291,0-0.516,0.129-0.773,0.241c-0.531,0.241-0.901,0.322-1.48,0.322  c-1.48,0-2.608-0.788-2.608-2.351c0-1.657,1.159-2.172,2.561-2.64l1.657-0.547c0.338-0.112,0.627-0.145,0.627-0.579  c0-0.725-0.804-0.886-1.383-0.886c-0.919,0-1.739,0.273-2.544,0.661c-0.081,0.031-0.16,0.08-0.258,0.08  c-0.145,0-0.176-0.146-0.176-0.258v-0.886c0-0.258,0.095-0.321,0.321-0.419c0.885-0.368,1.979-0.514,2.929-0.514  c1.514,0,3.026,0.434,3.026,2.221v5.747C18.772,57.159,18.676,57.256,18.563,57.256z"/>
<path fill="#FFFFFF" d="M23.054,50.415c-0.386,0-0.772,0.081-1.11,0.273c-0.37,0.21-0.482,0.451-0.482,0.869v3.283  c0,0.95,0.82,1.208,1.624,1.208c0.597,0,1.176-0.226,1.595-0.644c0.563-0.564,0.644-1.433,0.644-2.189  C25.323,51.72,24.744,50.415,23.054,50.415 M23.359,57.385c-0.467,0-0.949-0.064-1.368-0.273c-0.226-0.113-0.434-0.273-0.691-0.258  c0,0.194,0.048,0.402-0.226,0.402h-1.337c-0.112,0-0.209-0.097-0.209-0.208V46.199c0-0.112,0.097-0.21,0.209-0.21h1.514  c0.112,0,0.21,0.098,0.21,0.21v3.379c0.305,0,0.386-0.048,0.658-0.16c0.516-0.226,0.999-0.338,1.563-0.338  c2.317,0,3.573,1.947,3.573,4.104C27.255,55.518,25.806,57.385,23.359,57.385z"/>
<path fill="#FFFFFF" d="M34.314,56.935c-0.627,0.289-1.659,0.45-2.351,0.45c-2.56,0-3.975-1.578-3.975-4.088  c0-2.447,1.527-4.249,4.039-4.249c0.596,0,1.207,0.08,1.771,0.241c0.306,0.079,0.788,0.161,0.788,0.563v0.869  c0,0.098-0.048,0.192-0.161,0.192c-0.096,0-0.227-0.047-0.306-0.095c-0.548-0.273-1.159-0.435-1.771-0.435  c-1.786,0-2.43,1.174-2.43,2.832c0,1.578,0.579,2.8,2.334,2.8c0.659,0,1.336-0.176,1.915-0.481c0.08-0.05,0.178-0.097,0.274-0.097  c0.226,0,0.145,0.9,0.145,1.062C34.588,56.79,34.556,56.822,34.314,56.935"/>
<path fill="#FFFFFF" d="M38.904,50.384c-1.578,0-2.029,1.545-2.029,2.85c0,1.302,0.434,2.912,2.029,2.912  c1.561,0,1.994-1.562,1.994-2.849C40.898,52.025,40.465,50.384,38.904,50.384 M41.574,56.629c-0.788,0.707-1.673,0.868-2.703,0.868  c-1.031,0-1.884-0.161-2.672-0.868c-0.966-0.869-1.256-2.109-1.256-3.364c0-1.271,0.29-2.494,1.271-3.364  c0.838-0.725,1.69-0.853,2.77-0.853c2.655,0,3.848,1.738,3.848,4.249C42.831,54.553,42.557,55.76,41.574,56.629z"/>
<path fill="#FFFFFF" d="M49.813,56.935c-0.627,0.289-1.662,0.45-2.357,0.45c-2.56,0-3.977-1.578-3.977-4.088  c0-2.447,1.529-4.249,4.042-4.249c0.599,0,1.213,0.08,1.777,0.241c0.306,0.079,0.789,0.161,0.789,0.563v0.869  c0,0.098-0.049,0.192-0.162,0.192c-0.096,0-0.225-0.047-0.306-0.095c-0.546-0.273-1.16-0.435-1.776-0.435  c-1.788,0-2.433,1.174-2.433,2.832c0,1.578,0.578,2.8,2.336,2.8c0.664,0,1.342-0.176,1.922-0.481  c0.081-0.05,0.177-0.097,0.273-0.097c0.226,0,0.146,0.9,0.146,1.062C50.087,56.79,50.054,56.822,49.813,56.935"/>
<path fill="#FFFFFF" d="M57.7,57.256h-1.723c-0.274,0-0.307-0.064-0.45-0.273l-2.335-3.396c-0.097-0.144-0.241-0.112-0.402-0.112  v3.574c0,0.111-0.097,0.208-0.209,0.208h-1.513c-0.112,0-0.209-0.097-0.209-0.208V46.199c0-0.112,0.097-0.21,0.209-0.21h1.513  c0.112,0,0.209,0.098,0.209,0.21v6.1h0.193c0.112,0,0.161-0.032,0.242-0.112l2.43-2.736c0.128-0.145,0.193-0.242,0.386-0.242h1.48  c0.098,0,0.226,0.064,0.226,0.178s-0.112,0.226-0.177,0.306l-2.8,2.993l3.025,4.073c0.08,0.096,0.161,0.209,0.161,0.337  C57.957,57.224,57.796,57.256,57.7,57.256"/>
</svg>