<svg id="Capa_1" enable-background="new 0 0 512.43 512.43" height="512" viewBox="0 0 512.43 512.43" width="512"
     xmlns="http://www.w3.org/2000/svg">
    <g>
        <g>
            <g>
                <g>
                    <path d="m497.43 511.905h-482.43c-8.284 0-15-6.716-15-15v-232.927c0-8.284 6.716-15 15-15h482.43c8.284 0 15 6.716 15 15v232.927c0 8.284-6.716 15-15 15z"
                          fill="#4e638b"/>
                    <path d="m497.43 248.978h-241.215v262.927h241.215c8.284 0 15-6.716 15-15v-232.927c0-8.284-6.716-15-15-15z"
                          fill="#293e65"/>
                </g>
                <g>
                    <path d="m30 278.978h452.43v202.927h-452.43z" fill="#fff5f5"/>
                    <path d="m256.215 278.978h226.215v202.927h-226.215z" fill="#ece6f2"/>
                </g>
            </g>
            <g>
                <path d="m237.734 429.185-42.415-112.393c-.052-.138-.106-.274-.162-.41-2.723-6.62-9.104-10.895-16.261-10.895-.006 0-.012 0-.018 0-7.164.007-13.545 4.295-16.258 10.926-.047.113-.092.227-.135.341l-42.804 112.388c-2.948 7.742.938 16.408 8.679 19.357 1.758.67 3.562.986 5.336.986 6.044 0 11.741-3.681 14.021-9.665l6.981-18.329h48.067l6.901 18.286c2.925 7.749 11.577 11.665 19.33 8.738 7.751-2.925 11.663-11.58 8.738-19.33zm-71.61-37.694 12.718-33.392 12.602 33.392z"
                      fill="#56e1fd"/>
                <path d="m348.604 451.395c-7.562 0-14.249-4.805-16.659-11.98-.059-.176-.114-.352-.167-.531l-17.732-60.103-10.719 59.387c-1.472 8.153-9.28 13.567-17.426 12.098-8.152-1.472-13.569-9.273-12.098-17.426l20.036-111.008c.011-.057.02-.113.031-.169 1.507-7.835 8.119-13.681 16.079-14.216 7.966-.535 15.297 4.373 17.839 11.935.06.178.116.357.169.536l20.443 69.29 19.709-69.14c.05-.173.102-.344.157-.515 2.46-7.59 9.775-12.583 17.706-12.125 7.965.448 14.64 6.222 16.232 14.039.012.06.023.119.035.179l21.222 111.041c1.555 8.137-3.78 15.994-11.918 17.549-8.138 1.561-15.994-3.78-17.549-11.918l-11.398-59.641-17.117 60.048c-.05.173-.102.345-.157.516-2.346 7.229-9.027 12.112-16.627 12.152-.029.002-.06.002-.091.002z"
                      fill="#3dbcfc"/>
            </g>
        </g>
        <g>
            <path d="m354.742 99.052h-15.216c-2.19-12.195-6.992-23.488-13.816-33.282l10.781-10.78c5.858-5.857 5.858-15.355 0-21.213-5.857-5.858-15.355-5.858-21.213 0l-10.78 10.78c-9.794-6.825-21.087-11.626-33.282-13.817v-15.215c0-8.284-6.716-15-15-15s-15 6.716-15 15v15.216c-12.195 2.191-23.488 6.992-33.282 13.817l-10.781-10.78c-5.857-5.858-15.355-5.858-21.213 0-5.858 5.857-5.858 15.355 0 21.213l10.781 10.78c-6.825 9.794-11.626 21.087-13.816 33.282h-15.216c-8.284 0-15 6.716-15 15s6.716 15 15 15h15.216c2.19 12.194 6.991 23.488 13.816 33.281l-10.781 10.782c-5.857 5.858-5.856 15.355.001 21.214 2.93 2.929 6.768 4.393 10.607 4.393s7.678-1.465 10.607-4.394l10.78-10.781c9.794 6.825 21.087 11.626 33.282 13.817v15.216c0 8.284 6.716 15 15 15s15-6.716 15-15v-15.216c12.195-2.19 23.488-6.992 33.282-13.817l10.78 10.781c2.93 2.929 6.769 4.394 10.607 4.394s7.678-1.465 10.607-4.393c5.857-5.858 5.858-15.355.001-21.214l-10.781-10.782c6.825-9.793 11.625-21.086 13.816-33.281h15.216c8.284 0 15-6.716 15-15-.003-8.285-6.719-15.001-15.003-15.001z"
                  fill="#fff6a4"/>
            <path d="m354.742 99.052h-15.216c-2.19-12.195-6.992-23.488-13.816-33.282l10.781-10.78c5.858-5.857 5.858-15.355 0-21.213-5.857-5.858-15.355-5.858-21.213 0l-10.78 10.78c-9.794-6.825-21.087-11.626-33.282-13.817v-15.215c0-8.284-6.716-15-15-15v227.055c8.284 0 15-6.716 15-15v-15.216c12.195-2.19 23.488-6.992 33.282-13.817l10.78 10.781c2.93 2.929 6.769 4.394 10.607 4.394s7.678-1.465 10.607-4.393c5.857-5.858 5.858-15.355.001-21.214l-10.781-10.782c6.825-9.793 11.625-21.086 13.816-33.281h15.216c8.284 0 15-6.716 15-15-.002-8.284-6.718-15-15.002-15z"
                  fill="#fee05b"/>
        </g>
    </g>
</svg>