<svg width="149" height="44" viewBox="0 0 149 44" fill="none" xmlns="http://www.w3.org/2000/svg">
<g clip-path="url(#clip0_304_4614)">
<path d="M42.5586 27.2121C44.9994 29.2156 47.3567 30.2174 49.6306 30.2174C50.8416 30.2174 51.7991 29.9575 52.5094 29.4348C52.8494 29.1961 53.1246 28.8765 53.3103 28.5049C53.4961 28.1333 53.5865 27.7213 53.5734 27.3061C53.5879 26.7619 53.4107 26.23 53.0727 25.8035C52.5306 25.2342 51.8821 24.7768 51.1639 24.4574L47.3463 22.6417C45.6565 21.8487 44.4726 20.993 43.7946 20.0748C43.1044 19.1204 42.747 17.9654 42.7777 16.7878C42.7533 15.8554 42.9439 14.9299 43.3346 14.0831C43.7253 13.2362 44.3057 12.4907 45.0307 11.9043C45.7376 11.3248 46.5507 10.8888 47.4245 10.6208C48.3521 10.3361 49.3175 10.1936 50.2877 10.1982C50.8649 10.2001 51.4408 10.2524 52.0088 10.3548C52.5794 10.4553 53.1397 10.6072 53.6829 10.8087C54.2048 11.0016 54.7076 11.2426 55.1849 11.5287C55.6306 11.8018 56.0497 12.1163 56.4366 12.4678V16.8504C55.5416 15.937 54.4997 15.1804 53.3543 14.6121C52.3499 14.102 51.242 13.829 50.1156 13.8139C49.2515 13.7728 48.3983 14.0206 47.6905 14.5182C47.3918 14.7399 47.1516 15.0311 46.9907 15.3665C46.8299 15.702 46.7532 16.0717 46.7674 16.4435C46.7599 16.9431 46.9258 17.4298 47.2368 17.8208C47.7059 18.329 48.2835 18.7249 48.9265 18.9791L52.4938 20.6382C53.3195 21.0139 54.1147 21.4535 54.872 21.953C55.4622 22.3401 55.9899 22.8151 56.4366 23.3617C56.8239 23.8449 57.1159 24.3973 57.2971 24.9895C57.4814 25.6197 57.571 26.2738 57.5631 26.9304C57.5867 27.9214 57.3766 28.9041 56.9499 29.7988C56.5231 30.6934 55.8916 31.4749 55.1067 32.08C54.3387 32.6675 53.4688 33.108 52.5407 33.3791C51.561 33.6721 50.5436 33.8198 49.5211 33.8174C48.2228 33.8196 46.933 33.608 45.7034 33.1913C44.5633 32.8221 43.4945 32.261 42.543 31.5321L42.5586 27.2121Z" fill="#01311D"/>
<path d="M57.3906 17.3983H61.881L66.4809 26.8522L71.0809 17.3983H75.4617L63.8524 40H59.5654L64.3218 31.0783L57.3906 17.3983Z" fill="#01311D"/>
<path d="M76.6758 33.4261V9.63477H80.8063V33.4261H76.6758Z" fill="#01311D"/>
<path d="M81.9512 17.3983H86.5198L91.0571 26.8209L95.6258 17.3983H99.9753L90.9633 34.2713L81.9512 17.3983Z" fill="#01311D"/>
<path d="M107.326 17.0226C109.848 17.0226 111.799 17.8887 113.178 19.6208C114.555 21.3948 115.139 23.68 114.93 26.4765H102.977C103.062 27.0486 103.264 27.5969 103.571 28.0871C103.878 28.5773 104.283 28.9988 104.76 29.3252C105.739 30.0139 106.98 30.3582 108.484 30.3582C109.459 30.3549 110.426 30.1909 111.347 29.873C112.226 29.5867 113.047 29.1468 113.772 28.5739V32.2208C112.967 32.7544 112.079 33.1511 111.144 33.3948C110.114 33.6773 109.051 33.8195 107.983 33.8174C106.81 33.823 105.645 33.6216 104.541 33.2226C103.496 32.8496 102.534 32.2753 101.709 31.5321C100.898 30.7913 100.248 29.8908 99.8004 28.8869C99.3215 27.8085 99.0813 26.6391 99.0964 25.4591C99.0918 24.3414 99.3121 23.2342 99.7441 22.2035C100.15 21.2101 100.739 20.3022 101.481 19.5269C102.224 18.7556 103.112 18.1386 104.094 17.7113C105.111 17.2566 106.212 17.0219 107.326 17.0226V17.0226ZM103.102 23.7217H111.081C111.009 22.7864 110.584 21.9137 109.892 21.28C109.169 20.6407 108.228 20.3044 107.264 20.3408C106.315 20.3223 105.39 20.6381 104.651 21.233C103.88 21.8739 103.336 22.7468 103.102 23.7217Z" fill="#01311D"/>
<path d="M117.027 17.3983H121.158V19.8713C121.655 18.9557 122.419 18.2132 123.348 17.7426C124.278 17.262 125.325 17.0557 126.368 17.1478V21.28C124.741 21.0713 123.468 21.3426 122.55 22.0939C121.632 22.8452 121.174 24.0139 121.174 25.6V33.4261H117.043L117.027 17.3983Z" fill="#01311D"/>
<path d="M134.672 17.0226C135.76 17.0098 136.834 17.2623 137.802 17.7583C138.674 18.1825 139.415 18.8374 139.942 19.6522V17.3983H144.073V33.4261H139.942V31.1722C139.415 31.987 138.674 32.6419 137.802 33.0661C136.833 33.5607 135.76 33.8131 134.672 33.8017C133.572 33.8155 132.482 33.5857 131.481 33.1287C130.544 32.6971 129.708 32.0732 129.027 31.2974C128.339 30.5109 127.804 29.6033 127.447 28.6209C126.692 26.5484 126.692 24.2759 127.447 22.2035C127.804 21.2211 128.339 20.3135 129.027 19.527C129.708 18.7512 130.544 18.1273 131.481 17.6957C132.482 17.2387 133.572 17.0089 134.672 17.0226V17.0226ZM135.486 30.2644C136.106 30.2704 136.72 30.1422 137.285 29.8887C137.828 29.6471 138.318 29.3014 138.728 28.8713C139.138 28.4262 139.457 27.9051 139.667 27.3374C139.901 26.7229 140.018 26.0698 140.011 25.4122C140.018 24.7596 139.902 24.1115 139.667 23.5026C139.452 22.9371 139.134 22.4168 138.728 21.9687C138.326 21.5338 137.838 21.1873 137.295 20.9513C136.727 20.7074 136.114 20.5848 135.495 20.5913C134.889 20.5869 134.287 20.7095 133.731 20.9513C133.185 21.187 132.693 21.5334 132.288 21.9687C131.877 22.4156 131.553 22.9359 131.334 23.5026C131.101 24.1121 130.986 24.7599 130.993 25.4122C130.986 26.0695 131.102 26.7222 131.334 27.3374C131.548 27.9063 131.873 28.4275 132.288 28.8713C132.698 29.3007 133.188 29.6462 133.731 29.8887C134.282 30.1386 134.881 30.2667 135.486 30.2644V30.2644Z" fill="#01311D"/>
<path d="M9.14129 19.4299C9.13817 20.2963 9.24329 21.1597 9.45421 22C10.0247 24.2098 11.3135 26.1672 13.1177 27.5641C14.922 28.961 17.1392 29.7182 19.4207 29.7165V34.8598H19.0233C15.4505 34.7694 12.0201 33.4399 9.31906 31.0986C6.61799 28.7574 4.81407 25.5499 4.21593 22.025C4.07092 21.176 3.99869 20.3162 4.00002 19.4549C3.99961 17.4288 4.39817 15.4224 5.17295 13.5504C5.94773 11.6784 7.08354 9.97737 8.51552 8.54453C9.94751 7.11169 11.6476 5.97508 13.5187 5.19962C15.3899 4.42416 17.3954 4.02502 19.4207 4.02502V9.16833H19.0233C16.3708 9.27255 13.8613 10.3986 12.0196 12.3111C10.1778 14.2236 9.14651 16.7743 9.14129 19.4299V19.4299Z" fill="#01311D"/>
<path d="M34.8437 24.5701C34.8437 26.5964 34.4448 28.6028 33.6697 30.4749C32.8945 32.3469 31.7584 34.0479 30.3262 35.4807C28.894 36.9135 27.1937 38.05 25.3224 38.8255C23.451 39.6009 21.4454 40 19.4199 40V34.8567H19.8173C22.4736 34.7531 24.9867 33.6248 26.8296 31.7082C28.6725 29.7916 29.702 27.2357 29.7025 24.5763C29.7056 23.71 29.6005 22.8466 29.3895 22.0063C28.8182 19.7983 27.53 17.8427 25.7272 16.4466C23.9244 15.0505 21.7091 14.2929 19.4293 14.2929V9.14331H19.8267C23.4021 9.23424 26.8347 10.5659 29.5366 12.9102C32.2385 15.2546 34.0417 18.4657 34.6372 21.9937C34.7794 22.845 34.8485 23.707 34.8437 24.5701Z" fill="#3ACB5A"/>
</g>
<defs>
<clipPath id="clip0_304_4614">
<rect width="140.06" height="36" fill="white" transform="translate(4 4)"/>
</clipPath>
</defs>
</svg>