<?xml version="1.0" encoding="UTF-8"?>
<svg xmlns="http://www.w3.org/2000/svg" xmlns:xlink="http://www.w3.org/1999/xlink" xmlns:svgjs="http://svgjs.com/svgjs" version="1.1" width="512" height="512" x="0" y="0" viewBox="0 0 511.982 511.982" style="enable-background:new 0 0 512 512" xml:space="preserve" class="">
  <g>
    <g xmlns="http://www.w3.org/2000/svg">
      <path d="m509.831 99.246-24.76-24.76c-2.892-2.892-7.582-2.892-10.474 0-2.893 2.892-2.893 7.582 0 10.475l12.653 12.653h-51.473c-4.353 0-8.445 1.695-11.522 4.773l-26.265 26.265-29.244-29.244c-4.813-4.813-12.644-4.813-17.458 0l-53.216 53.216c-2.893 2.892-2.893 7.582 0 10.474 1.446 1.446 3.342 2.17 5.237 2.17s3.791-.723 5.237-2.17l51.47-51.47 29.244 29.244c4.812 4.813 12.644 4.814 17.457 0l28.012-28.012c.275-.276.657-.433 1.046-.433h50.398l-11.579 11.579c-2.893 2.892-2.893 7.582 0 10.474 2.892 2.893 7.582 2.893 10.474 0l24.76-24.76c2.872-2.757 2.872-7.717.003-10.474z" fill="#df73c1" data-original="#df73c1" style="" class=""/>
      <path d="m229.47 61.564h-35.016c-4.091 0-7.407 3.316-7.407 7.407s3.316 7.407 7.407 7.407h16.982l-29.486 29.485c-.092.092-.214.142-.344.143l-70.078.554c-4.043.032-7.845 1.624-10.703 4.483l-54.419 54.42c-2.893 2.892-2.893 7.582 0 10.474 1.446 1.446 3.342 2.169 5.237 2.169s3.791-.723 5.237-2.169l54.419-54.419c.092-.092.215-.143.345-.145l70.078-.552c4.044-.032 7.845-1.625 10.703-4.483l29.637-29.637v17.288c0 4.091 3.316 7.407 7.407 7.407s7.407-3.316 7.407-7.407v-35.018c.001-4.09-3.316-7.407-7.406-7.407z" fill="#80cb8e" data-original="#80cb8e" style="" class=""/>
      <path d="m500.555 344.842 3-13.04v-170.971c0-7.18-5.82-13-13-13h-203.47c-7.18 0-13 5.82-13 13v170.971l3 13.04z" fill="#549eb6" data-original="#f6f1f1" style="" class=""/>
      <path d="m226.47 344.842 3-13.04v-170.971c0-7.18-5.82-13-13-13h-203.47c-7.18 0-13 5.82-13 13v170.971l3 13.04z" fill="#549eb6" data-original="#f6f1f1" style="" class=""/>
      <path d="m500.555 344.842 3-13.04v-170.971c0-7.18-5.82-13-13-13h-20.921v197.012h30.921z" fill="#086f83" data-original="#e7ecf6" style="" class=""/>
      <path d="m226.47 344.842 3-13.04v-170.971c0-7.18-5.82-13-13-13h-20.921v197.012h30.921z" fill="#086f83" data-original="#e7ecf6" style="" class=""/>
      <g>
        <path d="m274.085 331.802v105.616c0 7.18 5.82 13 13 13h203.47c7.18 0 13-5.82 13-13v-105.616z" fill="#df73c1" data-original="#df73c1" style="" class=""/>
      </g>
      <g>
        <path d="m0 331.802v105.616c0 7.18 5.82 13 13 13h203.47c7.18 0 13-5.82 13-13v-105.616z" fill="#80cb8e" data-original="#80cb8e" style="" class=""/>
      </g>
      <g>
        <path d="m287.085 450.418h203.47c7.18 0 13-5.82 13-13v-105.616h-33.921v70.869c0 7.636-6.19 13.826-13.826 13.826h-181.723v20.921c0 7.18 5.821 13 13 13z" fill="#dd4fb1" data-original="#dd4fb1" style="" class=""/>
      </g>
      <g>
        <path d="m13 450.418h203.47c7.18 0 13-5.82 13-13v-105.616h-33.921v70.869c0 7.636-6.19 13.826-13.826 13.826h-181.723v20.921c0 7.18 5.82 13 13 13z" fill="#66b49d" data-original="#66b49d" style="" class=""/>
      </g>
      <g>
        <path d="m191.422 377.567h-153.161c-4.091 0-7.407-3.316-7.407-7.407s3.316-7.407 7.407-7.407h153.162c4.091 0 7.407 3.316 7.407 7.407-.001 4.09-3.317 7.407-7.408 7.407z" fill="#90cdf4" data-original="#335995" style="" class=""/>
      </g>
      <g>
        <path d="m191.422 418.486h-153.161c-4.091 0-7.407-3.316-7.407-7.407s3.316-7.407 7.407-7.407h153.162c4.091 0 7.407 3.316 7.407 7.407s-3.317 7.407-7.408 7.407z" fill="#90cdf4" data-original="#335995" style="" class=""/>
      </g>
      <g>
        <g>
          <circle cx="70.295" cy="412.21" fill="#086f83" r="17.329" data-original="#e7ecf6" style="" class=""/>
        </g>
        <g>
          <path d="m74.18 395.335c.287 1.251.453 2.548.453 3.886 0 9.57-7.758 17.329-17.329 17.329-1.338 0-2.635-.166-3.886-.453 1.766 7.697 8.643 13.443 16.876 13.443 9.57 0 17.329-7.758 17.329-17.329.001-8.233-5.746-15.11-13.443-16.876z" fill="#d5dff4" data-original="#d5dff4" style="" class=""/>
        </g>
      </g>
      <g>
        <g>
          <circle cx="132.291" cy="370.16" fill="#086f83" r="17.329" data-original="#e7ecf6" style="" class=""/>
        </g>
        <g>
          <path d="m136.176 353.284c.287 1.251.453 2.548.453 3.886 0 9.57-7.758 17.329-17.329 17.329-1.338 0-2.635-.166-3.886-.453 1.766 7.697 8.643 13.443 16.876 13.443 9.57 0 17.329-7.758 17.329-17.329 0-8.233-5.746-15.11-13.443-16.876z" fill="#d5dff4" data-original="#d5dff4" style="" class=""/>
        </g>
      </g>
      <g>
        <path d="m465.401 377.567h-153.162c-4.091 0-7.407-3.316-7.407-7.407s3.316-7.407 7.407-7.407h153.162c4.091 0 7.407 3.316 7.407 7.407 0 4.09-3.316 7.407-7.407 7.407z" fill="#90cdf4" data-original="#335995" style="" class=""/>
      </g>
      <g>
        <path d="m465.401 418.486h-153.162c-4.091 0-7.407-3.316-7.407-7.407s3.316-7.407 7.407-7.407h153.162c4.091 0 7.407 3.316 7.407 7.407s-3.316 7.407-7.407 7.407z" fill="#90cdf4" data-original="#335995" style="" class=""/>
      </g>
      <g>
        <g>
          <circle cx="440.927" cy="412.21" fill="#086f83" r="17.329" data-original="#e7ecf6" style="" class=""/>
        </g>
        <g>
          <path d="m444.813 395.335c.287 1.251.453 2.548.453 3.886 0 9.57-7.758 17.329-17.329 17.329-1.338 0-2.635-.166-3.886-.453 1.766 7.697 8.643 13.443 16.876 13.443 9.57 0 17.329-7.758 17.329-17.329 0-8.233-5.746-15.11-13.443-16.876z" fill="#d5dff4" data-original="#d5dff4" style="" class=""/>
        </g>
      </g>
      <g>
        <g>
          <circle cx="319.611" cy="370.16" fill="#086f83" r="17.329" data-original="#e7ecf6" style="" class=""/>
        </g>
        <g>
          <path d="m323.497 353.284c.287 1.251.453 2.548.453 3.886 0 9.57-7.758 17.329-17.329 17.329-1.338 0-2.635-.166-3.886-.453 1.766 7.697 8.643 13.443 16.876 13.443 9.57 0 17.329-7.758 17.329-17.329 0-8.233-5.747-15.11-13.443-16.876z" fill="#d5dff4" data-original="#d5dff4" style="" class=""/>
        </g>
      </g>
      <g fill="#335995">
        <path d="m70.293 307.787c2.984 0 5.798-1.817 6.923-4.772l8.711-22.872h57.694l8.624 22.851c1.444 3.826 5.715 5.759 9.545 4.315 3.827-1.444 5.759-5.718 4.315-9.545l-41.887-110.995c-.026-.068-.053-.136-.08-.203-1.543-3.749-5.156-6.169-9.209-6.169-.003 0-.007 0-.01 0-4.057.004-7.67 2.432-9.207 6.187-.023.056-.045.112-.067.169l-42.272 110.99c-1.911 4.719 1.862 10.133 6.92 10.044zm44.614-103.734 23.125 61.276h-46.463z" fill="#90cdf4" data-original="#335995" style="" class=""/>
        <path d="m393.09 178.731h-32.7c-4.091 0-7.407 3.316-7.407 7.407v112.575c-.079 3.991 3.449 7.503 7.439 7.407.301-.001 30.191-.134 38.378-.134 20.793 0 37.709-16.916 37.709-37.709 0-14.213-7.906-26.61-19.55-33.036 5.836-6.003 9.441-14.187 9.441-23.2 0-18.367-14.943-33.31-33.31-33.31zm0 14.814c10.199 0 18.497 8.298 18.497 18.497s-8.298 18.497-18.497 18.497c-2.388 0-25.294.03-25.294.03v-37.024zm5.71 97.628c-5.643 0-21.51.062-31.004.102v-45.84c3.927-.016 31.004-.052 31.004-.052 12.625 0 22.895 10.271 22.895 22.895.001 12.624-10.27 22.895-22.895 22.895z" fill="#90cdf4" data-original="#335995" style="" class=""/>
      </g>
    </g>
  </g>
</svg>
