<?xml version="1.0" encoding="UTF-8"?>
<svg xmlns="http://www.w3.org/2000/svg"
     version="1.1" width="512" height="512" x="0" y="0" viewBox="0 0 512 512" style="enable-background:new 0 0 512 512"
     xml:space="preserve" class="">
  <g>
    <g xmlns="http://www.w3.org/2000/svg">
      <path d="m477.848 484.55h-443.695c-14.72 0-26.653-11.933-26.653-26.653v-372.319h497v372.32c0 14.72-11.932 26.652-26.652 26.652z"
            fill="#faf5ff" data-original="#ecf9f9" style="" class=""/>
        <path d="m477.72 85.578v372.32c0 14.72-11.933 26.653-26.652 26.653h26.78c14.72 0 26.653-11.933 26.653-26.653v-372.32z"
              fill="#f3e9fe" data-original="#d5dff4" style="" class=""/>
        <path d="m504.5 54.102c0-14.72-11.933-26.653-26.653-26.653h-443.694c-14.72.001-26.653 11.933-26.653 26.653v31.476h497z"
              fill="#6b46c1" data-original="#e278b1" style="" class=""/>
        <path d="m477.848 27.45h-26.78c14.72 0 26.652 11.933 26.652 26.653v31.476h26.78v-31.477c0-14.72-11.932-26.652-26.652-26.652z"
              fill="#553c9a" data-original="#dd5ca2" style="" class=""/>
        <g>
        <path d="m77.707 179.266h141.688v91.339h-141.688z" fill="#eab14d" data-original="#eab14d" style="" class=""/>
            <path d="m195.175 179.266h24.22v91.339h-24.22z" fill="#e49542" data-original="#e49542" style="" class=""/>
            <path d="m77.707 270.605h141.688v120.257h-141.688z" fill="#c3d5ef" data-original="#c3d5ef" style=""/>
            <path d="m195.175 270.605h24.22v120.257h-24.22z" fill="#b7c8ea" data-original="#b7c8ea" style=""/>
            <path d="m292.606 179.266h141.688v91.339h-141.688z" fill="#b3e59f" data-original="#b3e59f" style=""
                  class=""/>
            <path d="m410.074 179.266h24.22v91.339h-24.22z" fill="#95d6a4" data-original="#95d6a4" style=""/>
            <path d="m292.606 270.605h141.688v120.257h-141.688z" fill="#c3d5ef" data-original="#c3d5ef" style=""/>
            <path d="m410.074 270.605h24.22v120.257h-24.22z" fill="#b7c8ea" data-original="#b7c8ea" style=""/>
      </g>
        <g>
        <path d="m47.599 49.014c-4.143 0-7.5 3.357-7.5 7.5s3.357 7.5 7.5 7.5h6.936c4.143 0 7.5-3.357 7.5-7.5s-3.357-7.5-7.5-7.5z"
              fill="#000000" data-original="#000000" style="" class=""/>
            <path d="m88.883 49.014h-6.936c-4.143 0-7.5 3.357-7.5 7.5s3.357 7.5 7.5 7.5h6.936c4.143 0 7.5-3.357 7.5-7.5s-3.358-7.5-7.5-7.5z"
                  fill="#000000" data-original="#000000" style="" class=""/>
            <path d="m116.296 64.014h6.936c4.143 0 7.5-3.357 7.5-7.5s-3.357-7.5-7.5-7.5h-6.936c-4.143 0-7.5 3.357-7.5 7.5s3.357 7.5 7.5 7.5z"
                  fill="#000000" data-original="#000000" style="" class=""/>
            <path d="m477.848 19.95h-353.505c-4.143 0-7.5 3.357-7.5 7.5s3.357 7.5 7.5 7.5h353.505c10.561 0 19.152 8.592 19.152 19.152v23.976h-482v-23.976c0-10.561 8.592-19.152 19.152-19.152h61.19c4.143 0 7.5-3.357 7.5-7.5s-3.357-7.5-7.5-7.5h-61.19c-18.832 0-34.152 15.32-34.152 34.152v403.796c0 18.832 15.32 34.152 34.152 34.152h326.611c4.143 0 7.5-3.357 7.5-7.5s-3.357-7.5-7.5-7.5h-326.611c-10.56 0-19.152-8.592-19.152-19.152v-364.82h482v364.82c0 10.561-8.592 19.152-19.152 19.152h-88.084c-4.143 0-7.5 3.357-7.5 7.5s3.357 7.5 7.5 7.5h88.084c18.832 0 34.152-15.32 34.152-34.152v-403.796c0-18.832-15.32-34.152-34.152-34.152z"
                  fill="#000000" data-original="#000000" style="" class=""/>
            <path d="m77.707 171.766c-4.143 0-7.5 3.357-7.5 7.5v211.597c0 4.143 3.357 7.5 7.5 7.5h141.688c4.143 0 7.5-3.357 7.5-7.5v-211.597c0-4.143-3.357-7.5-7.5-7.5zm7.5 15h126.688v76.34h-126.688zm126.688 196.597h-126.688v-105.257h126.688z"
                  fill="#000000" data-original="#000000" style="" class=""/>
            <path d="m156.553 201.171c-.025-.068-.053-.137-.08-.204-1.314-3.194-4.394-5.257-7.847-5.257h-.009c-3.458.003-6.537 2.073-7.846 5.272-.022.057-.045.113-.066.169l-16.316 42.84c-1.475 3.871.469 8.204 4.339 9.679 3.862 1.472 8.202-.461 9.679-4.339l2.224-5.839h15.862l2.195 5.817c1.463 3.875 5.79 5.833 9.665 4.368 3.875-1.462 5.831-5.789 4.368-9.665zm-10.21 27.322 2.254-5.919 2.234 5.919z"
                  fill="#000000" data-original="#000000" style="" class=""/>
            <path d="m116.184 308.289h64.734c4.143 0 7.5-3.357 7.5-7.5s-3.357-7.5-7.5-7.5h-64.734c-4.143 0-7.5 3.357-7.5 7.5s3.357 7.5 7.5 7.5z"
                  fill="#000000" data-original="#000000" style="" class=""/>
            <path d="m116.184 338.234h64.734c4.143 0 7.5-3.357 7.5-7.5s-3.357-7.5-7.5-7.5h-64.734c-4.143 0-7.5 3.357-7.5 7.5s3.357 7.5 7.5 7.5z"
                  fill="#000000" data-original="#000000" style="" class=""/>
            <path d="m116.184 368.179h64.734c4.143 0 7.5-3.357 7.5-7.5s-3.357-7.5-7.5-7.5h-64.734c-4.143 0-7.5 3.357-7.5 7.5s3.357 7.5 7.5 7.5z"
                  fill="#000000" data-original="#000000" style="" class=""/>
            <path d="m362.811 195.71h-12.621c-4.143 0-7.5 3.357-7.5 7.5v43.451c0 1.995.795 3.907 2.209 5.315 1.405 1.399 3.308 2.185 5.291 2.185h.033c.002 0 11.597-.052 14.792-.052 10.585 0 19.196-8.611 19.196-19.195 0-5.387-2.231-10.263-5.817-13.752 1.224-2.388 1.914-5.091 1.914-7.954.001-9.648-7.849-17.498-17.497-17.498zm0 15c1.377 0 2.498 1.121 2.498 2.498s-1.121 2.498-2.498 2.498c-.665 0-1.715.002-5.121.012v-5.008zm2.204 28.4c-1.396 0-4.389.01-7.325.021v-8.41c1.341-.004 3.861-.001 7.325-.002 2.313 0 4.196 1.883 4.196 4.196s-1.883 4.195-4.196 4.195z"
                  fill="#000000" data-original="#000000" style="" class=""/>
            <path d="m331.083 308.289h64.733c4.143 0 7.5-3.357 7.5-7.5s-3.357-7.5-7.5-7.5h-64.733c-4.143 0-7.5 3.357-7.5 7.5s3.357 7.5 7.5 7.5z"
                  fill="#000000" data-original="#000000" style="" class=""/>
            <path d="m331.083 338.234h64.733c4.143 0 7.5-3.357 7.5-7.5s-3.357-7.5-7.5-7.5h-64.733c-4.143 0-7.5 3.357-7.5 7.5s3.357 7.5 7.5 7.5z"
                  fill="#000000" data-original="#000000" style="" class=""/>
            <path d="m331.083 368.179h64.733c4.143 0 7.5-3.357 7.5-7.5s-3.357-7.5-7.5-7.5h-64.733c-4.143 0-7.5 3.357-7.5 7.5s3.357 7.5 7.5 7.5z"
                  fill="#000000" data-original="#000000" style="" class=""/>
            <path d="m332.499 186.766c4.143 0 7.5-3.357 7.5-7.5s-3.357-7.5-7.5-7.5h-39.894c-4.143 0-7.5 3.357-7.5 7.5v211.597c0 4.143 3.357 7.5 7.5 7.5h141.688c4.143 0 7.5-3.357 7.5-7.5v-211.597c0-4.143-3.357-7.5-7.5-7.5h-72.795c-4.143 0-7.5 3.357-7.5 7.5s3.357 7.5 7.5 7.5h65.295v76.34h-126.688v-76.34zm94.295 91.34v105.257h-126.689v-105.257z"
                  fill="#000000" data-original="#000000" style="" class=""/>
      </g>
    </g>
  </g>
</svg>
